#!OML:ASF F:\VICON\USERDATA\INSTALL\Justin_Nancy\Justin_Nancy.ASF
:FULLY-SPECIFIED
:DEGREES
238
root 0.413694 17.5084 -2.30336 -0.0352663 2.34442 -0.410996
lowerback 2.26273 -0.323743 -0.209513
upperback -1.00318 -0.387351 2.34922
thorax -2.28099 -0.171972 2.54795
lowerneck -13.8302 -6.98073 -11.6384
upperneck 19.6932 -8.87277 8.2639
head 9.387 -4.19191 3.64235
rclavicle 1.97542e-015 -5.56597e-015
rhumerus -26.1731 -11.5148 -82.2453
rradius 34.3446
rwrist 3.15855
rhand -16.9065 14.1364
rfingers 7.12502
rthumb 9.32556 -15.6374
lclavicle 1.97542e-015 -5.56597e-015
lhumerus -31.0036 9.51108 85.7551
lradius 22.206
lwrist -14.2585
lhand -11.4718 27.5778
lfingers 7.12502
lthumb 14.566 57.0464
rfemur -8.7297 5.40151 25.6546
rtibia 29.3388
rfoot -15.0993 -9.26798
rtoes 2.39334
lfemur -11.5266 -3.85788 -21.7366
ltibia 32.0707
lfoot -16.4756 5.81487
ltoes 3.74982
239
root 0.420028 17.5102 -2.28588 0.0914759 2.36429 -0.379051
lowerback 2.06135 -0.33831 -0.276845
upperback -0.994834 -0.410921 2.36249
thorax -2.15755 -0.183615 2.59856
lowerneck -13.9794 -6.99433 -11.6807
upperneck 19.6149 -8.86155 8.27519
head 9.38897 -4.18447 3.6503
rclavicle -1.09332e-015 9.54166e-015
rhumerus -26.2793 -11.8905 -82.1308
rradius 33.3317
rwrist 3.96055
rhand -16.124 13.9183
rfingers 7.12502
rthumb 10.0806 -15.8202
lclavicle -1.09332e-015 9.54166e-015
lhumerus -30.7701 9.69236 85.7487
lradius 22.6546
lwrist -13.9199
lhand -11.677 27.1336
lfingers 7.12502
lthumb 14.3682 56.6163
rfemur -8.81373 5.41878 25.6067
rtibia 29.4239
rfoot -15.2948 -9.25983
rtoes 2.86941
lfemur -11.5742 -3.92984 -21.7624
ltibia 32.0056
lfoot -16.5731 5.76915
ltoes 3.98793
240
root 0.426146 17.508 -2.2694 0.201095 1.98571 -0.302738
lowerback 2.02311 -0.199862 -0.346915
upperback -1.05495 -0.228585 2.31035
thorax -2.20637 -0.0911326 2.57732
lowerneck -14.0068 -7.00277 -11.657
upperneck 19.5565 -8.87794 8.30101
head 9.37556 -4.18695 3.65198
rclavicle 5.71506e-015 8.74653e-015
rhumerus -26.605 -12.4654 -81.9593
rradius 32.2708
rwrist 5.10616
rhand -15.714 14.1062
rfingers 7.12502
rthumb 10.4761 -15.6128
lclavicle 5.71506e-015 8.74653e-015
lhumerus -30.7247 9.58212 85.7803
lradius 23.356
lwrist -13.3788
lhand -11.9933 28.0856
lfingers 7.12502
lthumb 14.0635 57.5897
rfemur -8.92052 5.59974 25.4923
rtibia 29.491
rfoot -15.3535 -9.10547
rtoes 2.86266
lfemur -11.5771 -3.9171 -21.8677
ltibia 31.9704
lfoot -16.6598 6.03292
ltoes 4.33727
241
root 0.433486 17.5055 -2.24957 0.229396 1.5999 -0.268206
lowerback 1.92801 -0.0401951 -0.354028
upperback -1.03133 -0.017955 2.26269
thorax -2.13853 0.0131854 2.52355
lowerneck -13.7398 -7.04546 -11.6174
upperneck 19.2405 -8.96728 8.34898
head 9.22701 -4.22774 3.65379
rclavicle 2.16178e-015 -9.54166e-015
rhumerus -26.8907 -13.2457 -81.7397
rradius 31.3603
rwrist 6.37427
rhand -15.5545 13.6354
rfingers 7.12502
rthumb 10.6299 -16.0758
lclavicle 2.16178e-015 -9.54166e-015
lhumerus -30.5191 9.31884 85.8669
lradius 23.9793
lwrist -13.074
lhand -11.8257 29.4785
lfingers 7.12502
lthumb 14.2249 58.9714
rfemur -8.93231 5.76513 25.4241
rtibia 29.5531
rfoot -15.4482 -8.95048
rtoes 2.64704
lfemur -11.4836 -3.7149 -21.9282
ltibia 31.9444
lfoot -16.7834 6.14108
ltoes 4.73395
242
root 0.442117 17.5008 -2.23232 0.236036 1.45965 -0.276093
lowerback 1.86201 0.0156864 -0.297821
upperback -1.04282 0.0572088 2.23307
thorax -2.11658 0.0496351 2.45843
lowerneck -13.5399 -7.05986 -11.5736
upperneck 19.0888 -9.00697 8.33483
head 9.13938 -4.2499 3.64016
rclavicle -2.52208e-015 0
rhumerus -27.1789 -14.1039 -81.4897
rradius 30.3657
rwrist 7.87209
rhand -15.4257 12.9045
rfingers 7.12502
rthumb 10.7542 -16.8002
lclavicle -2.52208e-015 0
lhumerus -30.4694 9.38857 85.8053
lradius 24.228
lwrist -11.827
lhand -13.2053 27.5323
lfingers 7.12502
lthumb 12.8953 57.1139
rfemur -8.90668 5.75598 25.3981
rtibia 29.6153
rfoot -15.6036 -8.83689
rtoes 2.58207
lfemur -11.3983 -3.64237 -21.943
ltibia 31.9333
lfoot -16.8434 6.16621
ltoes 4.4502
